REM DIRINDEX 1\2,1\4,1\5,1\6,1\7,1\3\8,1\3\9,1\3\10
REM DIRNAME folder01,folder02,folder03,folder04,folder05,folder06,folder07,folder08,folder09,folder10
TITLE ""
FILE "DB4500_5th_3B_11.mp3" MP3
  TRACK 01 AUDIO
    TITLE "0:"
    INDEX 01 00:00:00
  TRACK 02 AUDIO
    TITLE "8:cjc113_2198"
    INDEX 01 00:00:01
  TRACK 03 AUDIO
    TITLE "0:"
    INDEX 01 00:01:22
  TRACK 04 AUDIO
    TITLE "9:cjc113_2199"
    INDEX 01 00:01:42
  TRACK 05 AUDIO
    TITLE "0:"
    INDEX 01 00:03:06
  TRACK 06 AUDIO
    TITLE "10:cjc113_2200"
    INDEX 01 00:03:27
  TRACK 07 AUDIO
    TITLE "0:"
    INDEX 01 00:06:20
  TRACK 08 AUDIO
    TITLE "8:cjc113_2201"
    INDEX 01 00:06:67
  TRACK 09 AUDIO
    TITLE "0:"
    INDEX 01 00:08:15
  TRACK 10 AUDIO
    TITLE "9:cjc113_2202"
    INDEX 01 00:08:34
  TRACK 11 AUDIO
    TITLE "0:"
    INDEX 01 00:10:06
  TRACK 12 AUDIO
    TITLE "10:cjc113_2203"
    INDEX 01 00:10:21
  TRACK 13 AUDIO
    TITLE "0:"
    INDEX 01 00:13:61
  TRACK 14 AUDIO
    TITLE "8:cjc113_2204"
    INDEX 01 00:14:27
  TRACK 15 AUDIO
    TITLE "0:"
    INDEX 01 00:15:40
  TRACK 16 AUDIO
    TITLE "9:cjc113_2205"
    INDEX 01 00:15:60
  TRACK 17 AUDIO
    TITLE "0:"
    INDEX 01 00:17:35
  TRACK 18 AUDIO
    TITLE "10:cjc113_2206"
    INDEX 01 00:17:53
  TRACK 19 AUDIO
    TITLE "0:"
    INDEX 01 00:21:00
  TRACK 20 AUDIO
    TITLE "8:cjc113_2207"
    INDEX 01 00:21:43
  TRACK 21 AUDIO
    TITLE "0:"
    INDEX 01 00:22:50
  TRACK 22 AUDIO
    TITLE "9:cjc113_2208"
    INDEX 01 00:22:70
  TRACK 23 AUDIO
    TITLE "0:"
    INDEX 01 00:24:29
  TRACK 24 AUDIO
    TITLE "10:cjc113_2209"
    INDEX 01 00:24:45
  TRACK 25 AUDIO
    TITLE "0:"
    INDEX 01 00:29:13
  TRACK 26 AUDIO
    TITLE "8:cjc113_2210"
    INDEX 01 00:29:54
  TRACK 27 AUDIO
    TITLE "0:"
    INDEX 01 00:31:08
  TRACK 28 AUDIO
    TITLE "9:cjc113_2211"
    INDEX 01 00:31:26
  TRACK 29 AUDIO
    TITLE "0:"
    INDEX 01 00:33:26
  TRACK 30 AUDIO
    TITLE "10:cjc113_2212"
    INDEX 01 00:33:44
  TRACK 31 AUDIO
    TITLE "0:"
    INDEX 01 00:37:28
  TRACK 32 AUDIO
    TITLE "8:cjc113_2213"
    INDEX 01 00:37:69
  TRACK 33 AUDIO
    TITLE "0:"
    INDEX 01 00:39:29
  TRACK 34 AUDIO
    TITLE "9:cjc113_2214"
    INDEX 01 00:39:45
  TRACK 35 AUDIO
    TITLE "0:"
    INDEX 01 00:41:06
  TRACK 36 AUDIO
    TITLE "10:cjc113_2215"
    INDEX 01 00:41:24
  TRACK 37 AUDIO
    TITLE "0:"
    INDEX 01 00:47:01
  TRACK 38 AUDIO
    TITLE "8:cjc113_2216"
    INDEX 01 00:47:44
  TRACK 39 AUDIO
    TITLE "0:"
    INDEX 01 00:48:57
  TRACK 40 AUDIO
    TITLE "9:cjc113_2217"
    INDEX 01 00:49:00
  TRACK 41 AUDIO
    TITLE "0:"
    INDEX 01 00:50:46
  TRACK 42 AUDIO
    TITLE "10:cjc113_2218"
    INDEX 01 00:50:64
  TRACK 43 AUDIO
    TITLE "0:"
    INDEX 01 00:54:32
  TRACK 44 AUDIO
    TITLE "8:cjc113_2219"
    INDEX 01 00:55:03
  TRACK 45 AUDIO
    TITLE "0:"
    INDEX 01 00:56:14
  TRACK 46 AUDIO
    TITLE "9:cjc113_2220"
    INDEX 01 00:56:35
  TRACK 47 AUDIO
    TITLE "0:"
    INDEX 01 00:58:01
  TRACK 48 AUDIO
    TITLE "10:cjc113_2221"
    INDEX 01 00:58:22
  TRACK 49 AUDIO
    TITLE "0:"
    INDEX 01 01:03:00
  TRACK 50 AUDIO
    TITLE "8:cjc113_2222"
    INDEX 01 01:03:41
  TRACK 51 AUDIO
    TITLE "0:"
    INDEX 01 01:04:54
  TRACK 52 AUDIO
    TITLE "9:cjc113_2223"
    INDEX 01 01:04:68
  TRACK 53 AUDIO
    TITLE "0:"
    INDEX 01 01:06:24
  TRACK 54 AUDIO
    TITLE "10:cjc113_2224"
    INDEX 01 01:06:45
  TRACK 55 AUDIO
    TITLE "0:"
    INDEX 01 01:11:19
  TRACK 56 AUDIO
    TITLE "8:cjc113_2225"
    INDEX 01 01:11:58
  TRACK 57 AUDIO
    TITLE "0:"
    INDEX 01 01:13:00
  TRACK 58 AUDIO
    TITLE "9:cjc113_2226"
    INDEX 01 01:13:18
  TRACK 59 AUDIO
    TITLE "0:"
    INDEX 01 01:14:74
  TRACK 60 AUDIO
    TITLE "10:cjc113_2227"
    INDEX 01 01:15:17
  TRACK 61 AUDIO
    TITLE "0:"
    INDEX 01 01:18:27
